<?xml version="1.0" encoding="utf-8"?>
<!-- Generator: Adobe Illustrator 21.0.0, SVG Export Plug-In . SVG Version: 6.00 Build 0)  -->
<svg version="1.1" id="Layer_1" xmlns="http://www.w3.org/2000/svg" xmlns:xlink="http://www.w3.org/1999/xlink" x="0px" y="0px"
	 viewBox="0 0 231.2 339" style="enable-background:new 0 0 231.2 339;" xml:space="preserve">
<g>
	<g>
		<path d="M186.1,194c0,0,5.3,3.7,5.3,11.6c0,7.9,0,38.3,0,38.3s0.3,0.1,0.8,0.2c-0.4,1.2-0.8,2.9-1,4.9c-0.2,1.9,1.7,2.6,3.8,2.9
			c1.1,0.3,2.8,0.5,4.6,0.5c1.9,0,3.6-0.2,4.7-0.5c1.8-0.4,3.4-1.1,3.2-2.8c-0.2-2-0.6-3.7-1-4.9c0.5-0.1,0.8-0.2,0.8-0.2
			s0-30.4,0-38.3c0-7.9,5.3-11.6,5.3-11.6c9.5-8.7,8.7-17.8,8.7-17.8v-24.7c0,0,0-67.9,0-75c0-0.5-0.1-1-0.3-1.4
			c-1.5-4.7-10.6-8.3-21.7-8.3c-12.1,0-21.9,4.3-21.9,9.7c0,0,0,0,0,0c0,0,0,0,0,0c0,7.1,0,75,0,75v24.7
			C177.3,176.1,176.5,185.2,186.1,194z"/>
		<path d="M54.1,172.5c-6-17-10.4-47.6-10.5-58c-0.1-10.5-0.2-16.1-0.2-16.1s0.9,0.2,1-0.7c0.1-0.9-0.2-4.9-0.2-4.9
			s-0.4-0.5-0.8-0.4l-0.1-1.3l-8.6-0.2v0l-0.2,0l-0.2,0v0l-8.6,0.2l-0.1,1.3c-0.4-0.1-0.8,0.4-0.8,0.4s-0.3,4-0.2,4.9
			c0.1,0.9,1,0.7,1,0.7s-0.1,5.6-0.2,16.1c-0.1,10.5-4.5,41-10.5,58c-6,17-4.6,31.4-4.6,31.4v40.7v29.1c1.2,4.6,20.9,5.1,24.1,5.1v0
			c0,0,0.1,0,0.2,0c0.1,0,0.2,0,0.2,0v0c3.3-0.1,22.9-0.6,24.1-5.1v-29.1v-40.7C58.7,203.9,60,189.5,54.1,172.5z"/>
		<path d="M69,80.3c0,7,0,78.8,0,78.8v20c0,0-0.1,12.8,9.4,18.6c0,0,4.6,3.6,4.6,6.7c0,3.1,0,33.7,0,33.7v8.2c0,0-1.2,2.1,0,3v3.3
			c0,0-0.8,1.6,9.7,1.7v0c0,0,0,0,0,0c0,0,0,0,0,0v0c10.4,0,9.7-1.7,9.7-1.7v-3.3c1.2-1,0-3,0-3v-8.2c0,0,0-30.5,0-33.7
			c0-3.1,4.6-6.7,4.6-6.7c9.5-5.8,9.4-18.6,9.4-18.6v-20c0,0,0-71.8,0-78.8c0-7,0.1-11.2-3.1-12.3c-3-1-19.2-1-20.6-1l0,0
			c0,0,0,0,0,0c0,0,0,0,0,0l0,0c-1.4,0-17.6,0-20.6,1C68.9,69.1,69,73.2,69,80.3z"/>
		<path d="M172.4,219.3c0,0,0.7-10.3-4.3-26c-5-15.7-12.3-27.2-12.4-44.3c-0.1-17.1,0-44,0-44v-5.7c0,0,2-3.1,0-4.6l-8.9-0.1v0
			l-8.5,0.1c-2,1.5,0,4.6,0,4.6v5.7c0,0,0.1,26.8,0,44c-0.1,17.1-7.4,28.6-12.4,44.3c-5,15.7-4.3,26-4.3,26s-0.2,36.8,0,44.4
			c0.2,7.6,1,11.1,1,11.1c0.8,1.6,3,2.7,5.8,3.5c4.2,1.3,11,2.1,18.7,2.1c9.6,0,17.9-1.3,21.3-3.1c1.4-0.7,2.5-1.5,3-2.5
			c0,0,0.7-3.5,1-11.1C172.6,256.1,172.4,219.3,172.4,219.3z"/>
	</g>
	<g>
		<g>
			<path d="M13.5,14.5c0-0.3,0.2-0.5,0.6-0.5h0.5c0.3,0,0.5,0.1,0.5,0.3l7.1,15.2c0.1,0,0.1,0,0.1,0l7.1-15.2
				c0.1-0.2,0.3-0.3,0.5-0.3h0.5c0.4,0,0.5,0.2,0.6,0.5l3.8,21.6c0.1,0.4-0.2,0.7-0.6,0.7h-2.9c-0.3,0-0.5-0.3-0.6-0.5l-1.9-12.2
				c0,0-0.1,0-0.1,0L23,36.8c-0.1,0.2-0.3,0.4-0.5,0.4h-0.6c-0.3,0-0.5-0.2-0.5-0.4l-5.7-12.6c0,0-0.1,0-0.1,0l-1.9,12.2
				c0,0.2-0.3,0.5-0.6,0.5h-2.9c-0.4,0-0.7-0.3-0.6-0.7L13.5,14.5z"/>
			<path d="M56.2,14.1c6.4,0,11.6,5.2,11.6,11.6s-5.1,11.5-11.6,11.5c-6.4,0-11.5-5.1-11.5-11.5S49.8,14.1,56.2,14.1z M56.2,33
				c4.1,0,7.4-3.3,7.4-7.4s-3.3-7.4-7.4-7.4c-4,0-7.4,3.4-7.4,7.4S52.1,33,56.2,33z"/>
			<path d="M79.7,14.6c0-0.3,0.3-0.6,0.6-0.6h0.8l13.4,14.2h0V15c0-0.3,0.3-0.6,0.6-0.6h3c0.3,0,0.6,0.3,0.6,0.6v21.6
				c0,0.3-0.3,0.6-0.6,0.6h-0.8L83.9,22.4h0v13.8c0,0.3-0.3,0.6-0.6,0.6h-2.9c-0.3,0-0.6-0.3-0.6-0.6V14.6z"/>
			<path d="M109.3,36l10-21.6c0.1-0.2,0.3-0.4,0.5-0.4h0.3c0.3,0,0.4,0.2,0.5,0.4l9.9,21.6c0.2,0.4-0.1,0.8-0.5,0.8h-2.8
				c-0.5,0-0.7-0.2-0.9-0.6l-1.6-3.5h-9.6l-1.6,3.5c-0.1,0.3-0.4,0.6-0.9,0.6h-2.8C109.4,36.9,109.1,36.5,109.3,36z M123.2,29.2
				l-3.2-7.1h-0.1l-3.1,7.1H123.2z"/>
			<path d="M141.9,15c0-0.3,0.3-0.6,0.6-0.6h9.2c3.9,0,7,3.1,7,6.9c0,3-2,5.4-4.8,6.5l4.4,8.2c0.2,0.4,0,0.9-0.5,0.9h-3.4
				c-0.3,0-0.5-0.2-0.5-0.3l-4.3-8.5h-3.6v8.2c0,0.3-0.3,0.6-0.6,0.6h-3c-0.4,0-0.6-0.3-0.6-0.6V15z M151.4,24.6
				c1.7,0,3.2-1.5,3.2-3.3c0-1.7-1.5-3.1-3.2-3.1h-5.2v6.4H151.4z"/>
			<path d="M181.6,14.1c3.2,0,5.6,1,7.8,3c0.3,0.3,0.3,0.6,0,0.9l-2,2c-0.2,0.3-0.5,0.3-0.8,0c-1.3-1.2-3.1-1.9-4.9-1.9
				c-4.1,0-7.2,3.4-7.2,7.5c0,4,3.1,7.4,7.2,7.4c1.9,0,3.6-0.7,4.9-1.8c0.3-0.2,0.6-0.2,0.8,0l2,2.1c0.3,0.2,0.2,0.6,0,0.9
				c-2.2,2.1-4.9,3.1-7.8,3.1c-6.4,0-11.6-5.1-11.6-11.5S175.2,14.1,181.6,14.1z"/>
			<path d="M202.7,15c0-0.3,0.3-0.6,0.6-0.6h3c0.4,0,0.6,0.3,0.6,0.6v8.5h10.5V15c0-0.3,0.3-0.6,0.6-0.6h3c0.3,0,0.6,0.3,0.6,0.6
				v21.3c0,0.3-0.3,0.6-0.6,0.6h-3c-0.4,0-0.6-0.3-0.6-0.6v-8.9h-10.5v8.9c0,0.3-0.3,0.6-0.6,0.6h-3c-0.3,0-0.6-0.3-0.6-0.6V15z"/>
		</g>
	</g>
	<g>
		<path d="M9.6,312.2c-0.1-0.3,0.1-0.4,0.3-0.4h1.7c0.1,0,0.3,0.1,0.3,0.3l1.9,7.4H14l3-7.7c0-0.1,0.1-0.2,0.3-0.2h0.3
			c0.2,0,0.3,0.1,0.3,0.2l3,7.7H21l1.9-7.4c0-0.1,0.2-0.3,0.3-0.3h1.7c0.3,0,0.4,0.2,0.3,0.4l-3.5,12.5c0,0.1-0.2,0.3-0.3,0.3h-0.3
			c-0.2,0-0.3-0.1-0.3-0.2l-3.3-8.4h-0.1l-3.3,8.4c-0.1,0.1-0.1,0.2-0.3,0.2h-0.3c-0.1,0-0.3-0.1-0.3-0.3L9.6,312.2z"/>
		<path d="M31.2,312.1c0-0.2,0.2-0.4,0.4-0.4h1.7c0.2,0,0.4,0.2,0.4,0.4v12.3c0,0.2-0.2,0.4-0.4,0.4h-1.7c-0.2,0-0.4-0.2-0.4-0.4
			V312.1z"/>
		<path d="M40.7,311.9c0-0.2,0.2-0.3,0.4-0.3h0.5l7.7,8.2h0v-7.7c0-0.2,0.1-0.4,0.4-0.4h1.7c0.2,0,0.4,0.2,0.4,0.4v12.5
			c0,0.2-0.2,0.3-0.4,0.3h-0.4l-7.8-8.5h0v8c0,0.2-0.1,0.4-0.4,0.4h-1.7c-0.2,0-0.4-0.2-0.4-0.4V311.9z"/>
		<path d="M58.8,312.1c0-0.2,0.1-0.4,0.4-0.4h7.6c0.2,0,0.4,0.2,0.4,0.4v1.5c0,0.2-0.1,0.4-0.4,0.4h-5.5v3.1h4.6
			c0.2,0,0.4,0.2,0.4,0.4v1.5c0,0.2-0.2,0.4-0.4,0.4h-4.6v3.3h5.5c0.2,0,0.4,0.2,0.4,0.4v1.5c0,0.2-0.1,0.4-0.4,0.4h-7.6
			c-0.2,0-0.4-0.2-0.4-0.4V312.1z"/>
		<path d="M82.7,311.8c0-0.1,0.1-0.3,0.3-0.3h0.3c0.1,0,0.3,0.1,0.3,0.2l4.1,8.8c0,0,0,0,0.1,0l4.1-8.8c0.1-0.1,0.1-0.2,0.3-0.2h0.3
			c0.2,0,0.3,0.1,0.3,0.3l2.2,12.5c0.1,0.3-0.1,0.4-0.3,0.4H93c-0.2,0-0.3-0.1-0.4-0.3l-1.1-7.1c0,0-0.1,0-0.1,0l-3.3,7.3
			c0,0.1-0.1,0.2-0.3,0.2h-0.3c-0.2,0-0.3-0.1-0.3-0.2l-3.3-7.3c0,0,0,0-0.1,0l-1.1,7.1c0,0.1-0.2,0.3-0.3,0.3h-1.7
			c-0.2,0-0.4-0.2-0.4-0.4L82.7,311.8z"/>
		<path d="M101.3,312.1c0-0.2,0.1-0.4,0.4-0.4h7.6c0.2,0,0.4,0.2,0.4,0.4v1.5c0,0.2-0.1,0.4-0.4,0.4h-5.5v3.1h4.6
			c0.2,0,0.4,0.2,0.4,0.4v1.5c0,0.2-0.2,0.4-0.4,0.4h-4.6v3.3h5.5c0.2,0,0.4,0.2,0.4,0.4v1.5c0,0.2-0.1,0.4-0.4,0.4h-7.6
			c-0.2,0-0.4-0.2-0.4-0.4V312.1z"/>
		<path d="M116,312.1c0-0.2,0.1-0.4,0.4-0.4h5.3c2.2,0,4.1,1.8,4.1,4c0,1.7-1.1,3.1-2.8,3.8l2.6,4.7c0.1,0.2,0,0.5-0.3,0.5h-2
			c-0.2,0-0.3-0.1-0.3-0.2l-2.5-4.9h-2.1v4.7c0,0.2-0.2,0.4-0.4,0.4h-1.7c-0.2,0-0.4-0.2-0.4-0.4V312.1z M121.5,317.7
			c1,0,1.8-0.9,1.8-1.9c0-1-0.9-1.8-1.8-1.8h-3v3.7H121.5z"/>
		<path d="M137.9,311.5c1.9,0,3.2,0.6,4.5,1.7c0.2,0.1,0.2,0.4,0,0.5l-1.1,1.2c-0.1,0.1-0.3,0.1-0.5,0c-0.8-0.7-1.8-1.1-2.9-1.1
			c-2.4,0-4.2,2-4.2,4.3c0,2.3,1.8,4.3,4.2,4.3c1.1,0,2.1-0.4,2.8-1.1c0.1-0.1,0.4-0.1,0.5,0l1.2,1.2c0.1,0.1,0.1,0.4,0,0.5
			c-1.3,1.2-2.9,1.8-4.5,1.8c-3.7,0-6.7-3-6.7-6.7C131.2,314.5,134.2,311.5,137.9,311.5z"/>
		<path d="M148.6,312.1c0-0.2,0.2-0.4,0.4-0.4h1.7c0.2,0,0.4,0.2,0.4,0.4v4.9h6.1v-4.9c0-0.2,0.1-0.4,0.4-0.4h1.7
			c0.2,0,0.4,0.2,0.4,0.4v12.3c0,0.2-0.2,0.4-0.4,0.4h-1.7c-0.2,0-0.4-0.2-0.4-0.4v-5.1H151v5.1c0,0.2-0.1,0.4-0.4,0.4h-1.7
			c-0.2,0-0.4-0.2-0.4-0.4V312.1z"/>
		<path d="M164.9,324.3l5.8-12.5c0.1-0.1,0.1-0.2,0.3-0.2h0.2c0.2,0,0.3,0.1,0.3,0.2l5.7,12.5c0.1,0.2,0,0.5-0.3,0.5h-1.6
			c-0.3,0-0.4-0.1-0.5-0.4l-0.9-2h-5.6l-0.9,2c-0.1,0.2-0.2,0.4-0.5,0.4h-1.6C165,324.8,164.8,324.5,164.9,324.3z M173,320.3
			l-1.9-4.1h-0.1l-1.8,4.1H173z"/>
		<path d="M182.7,311.9c0-0.2,0.2-0.3,0.4-0.3h0.5l7.7,8.2h0v-7.7c0-0.2,0.1-0.4,0.4-0.4h1.7c0.2,0,0.4,0.2,0.4,0.4v12.5
			c0,0.2-0.2,0.3-0.4,0.3h-0.4l-7.8-8.5h0v8c0,0.2-0.1,0.4-0.4,0.4h-1.7c-0.2,0-0.4-0.2-0.4-0.4V311.9z"/>
		<path d="M202.6,314h-2.8c-0.2,0-0.4-0.2-0.4-0.4v-1.5c0-0.2,0.1-0.4,0.4-0.4h8.1c0.2,0,0.4,0.2,0.4,0.4v1.5c0,0.2-0.1,0.4-0.4,0.4
			H205v10.4c0,0.2-0.2,0.4-0.4,0.4h-1.7c-0.2,0-0.4-0.2-0.4-0.4V314z"/>
		<path d="M213.1,322.9l0.7-1.2c0.1-0.3,0.5-0.3,0.6-0.1c0.1,0.1,1.6,1.2,2.8,1.2c1,0,1.7-0.6,1.7-1.4c0-0.9-0.8-1.6-2.4-2.2
			c-1.8-0.7-3.5-1.8-3.5-4c0-1.7,1.2-3.6,4.2-3.6c1.9,0,3.4,1,3.7,1.2c0.2,0.1,0.2,0.4,0.1,0.6l-0.7,1.1c-0.1,0.2-0.4,0.4-0.7,0.2
			c-0.1-0.1-1.6-1-2.6-1c-1.1,0-1.6,0.7-1.6,1.3c0,0.9,0.7,1.5,2.2,2.1c1.8,0.7,3.9,1.8,3.9,4.2c0,1.9-1.7,3.7-4.3,3.7
			c-2.3,0-3.7-1.1-4.1-1.5C213,323.3,212.9,323.2,213.1,322.9z"/>
	</g>
</g>
</svg>
