<?xml version="1.0" encoding="utf-8"?>
<!-- Generator: Adobe Illustrator 21.0.0, SVG Export Plug-In . SVG Version: 6.00 Build 0)  -->
<svg version="1.1" id="Layer_1" xmlns="http://www.w3.org/2000/svg" xmlns:xlink="http://www.w3.org/1999/xlink" x="0px" y="0px"
	 viewBox="0 0 16.9 16.9" style="enable-background:new 0 0 16.9 16.9;" xml:space="preserve">
<style type="text/css">
	.st0{fill:#231F20;}
</style>
<g>
	<path class="st0" d="M11.4,1.9H5.5c-2,0-3.6,1.6-3.6,3.6v5.9c0,2,1.6,3.6,3.6,3.6h5.9c2,0,3.6-1.6,3.6-3.6V5.5
		C15,3.5,13.4,1.9,11.4,1.9L11.4,1.9z M13.8,11.4c0,1.3-1.1,2.4-2.4,2.4H5.5c-1.3,0-2.4-1.1-2.4-2.4V5.5c0-1.3,1.1-2.4,2.4-2.4h5.9
		c1.3,0,2.4,1.1,2.4,2.4V11.4z M13.8,11.4"/>
	<path class="st0" d="M8.5,5.1c-1.9,0-3.4,1.5-3.4,3.4c0,1.9,1.5,3.4,3.4,3.4c1.9,0,3.4-1.5,3.4-3.4C11.8,6.6,10.3,5.1,8.5,5.1
		L8.5,5.1z M8.5,10.7c-1.2,0-2.2-1-2.2-2.2c0-1.2,1-2.2,2.2-2.2s2.2,1,2.2,2.2C10.7,9.7,9.7,10.7,8.5,10.7L8.5,10.7z M8.5,10.7"/>
	<path class="st0" d="M12,4.1c-0.2,0-0.4,0.1-0.6,0.2c-0.2,0.2-0.2,0.4-0.2,0.6c0,0.2,0.1,0.4,0.2,0.6c0.2,0.2,0.4,0.2,0.6,0.2
		c0.2,0,0.4-0.1,0.6-0.2c0.2-0.2,0.2-0.4,0.2-0.6c0-0.2-0.1-0.4-0.2-0.6C12.4,4.2,12.2,4.1,12,4.1L12,4.1z M12,4.1"/>
</g>
</svg>
